<svg width="102" height="115" viewBox="0 0 102 115" fill="none" xmlns="http://www.w3.org/2000/svg">
<path d="M42.6957 21.403C42.0849 21.4015 41.4929 21.1917 41.018 20.8083C40.5432 20.425 40.2139 19.8911 40.085 19.2954C39.786 17.9027 39.6364 16.4822 39.6387 15.0578C39.6387 6.61242 44.585 4.8697e-05 50.8998 4.8697e-05C51.2628 -0.0190607 51.626 0.0357793 51.967 0.161227C52.3081 0.286674 52.62 0.480102 52.8838 0.729723C53.1475 0.979343 53.3575 1.27993 53.501 1.61316C53.6446 1.9464 53.7186 2.3053 53.7186 2.668C53.7186 3.0307 53.6446 3.38961 53.501 3.72284C53.3575 4.05607 53.1475 4.35666 52.8838 4.60628C52.62 4.8559 52.3081 5.04933 51.967 5.17478C51.626 5.30022 51.2628 5.35506 50.8998 5.33595C47.694 5.33595 44.9494 9.78873 44.9494 15.0578C44.948 16.1054 45.0577 17.1502 45.2767 18.1748C45.4246 18.8665 45.2916 19.5886 44.9068 20.1826C44.522 20.7767 43.9167 21.1942 43.2238 21.3437C43.0499 21.3791 42.8732 21.399 42.6957 21.403Z" fill="#0C57CE"/>
<path d="M61.7591 19.0802C59.8593 27.7493 56.1599 35.9251 50.8996 43.0806V59.2367C50.6297 59.2366 50.3704 59.3409 50.1761 59.5278C49.9819 59.7147 49.8679 59.9695 49.8583 60.2386L47.7905 111.037L49.1293 113.063C49.1974 113.163 49.2367 113.28 49.2429 113.401C49.249 113.522 49.2219 113.642 49.1643 113.748C49.1068 113.855 49.0211 113.943 48.9165 114.004C48.812 114.065 48.6927 114.097 48.5715 114.095H41.0517L40.1889 87.163C39.9149 88.7313 39.2754 90.2133 38.3219 91.4896C38.3219 91.4896 32.6319 98.436 20.5377 92.7067L18.7377 93.4489C18.5826 93.5094 18.4137 93.5254 18.25 93.4951C18.0862 93.4648 17.9343 93.3894 17.8113 93.2775C17.6882 93.1655 17.599 93.0215 17.5538 92.8616C17.5085 92.7017 17.5089 92.5324 17.5551 92.3728L19.8757 84.2836C22.6054 85.2112 30.698 87.8458 30.698 77.2853C30.698 70.9921 27.9608 65.3445 25.9674 62.0642C18.8283 64.9881 11.2247 66.6215 3.51212 66.8881C3.1491 66.9072 2.78599 66.8524 2.44491 66.7269C2.10383 66.6015 1.79192 66.408 1.52819 66.1584C1.26446 65.9088 1.05443 65.6082 0.910901 65.275C0.767375 64.9417 0.693359 64.5828 0.693359 64.2201C0.693359 63.8574 0.767375 63.4985 0.910901 63.1653C1.05443 62.8321 1.26446 62.5315 1.52819 62.2819C1.79192 62.0322 2.10383 61.8388 2.44491 61.7134C2.78599 61.5879 3.1491 61.5331 3.51212 61.5522C11.4349 61.2169 19.2174 59.3519 26.4286 56.0604C42.2269 48.8544 52.3723 36.0229 56.5971 17.915C56.6767 17.5739 56.8229 17.2518 57.0272 16.9671C57.2316 16.6823 57.4902 16.4405 57.7882 16.2555C58.0863 16.0705 58.4179 15.9458 58.7642 15.8887C59.1105 15.8315 59.4647 15.843 59.8066 15.9224C60.1484 16.0018 60.4713 16.1477 60.7567 16.3516C61.0421 16.5555 61.2844 16.8135 61.4698 17.1109C61.6553 17.4082 61.7802 17.7391 61.8375 18.0846C61.8948 18.4302 61.8833 18.7836 61.8037 19.1247L61.7591 19.0802Z" fill="#FF6217"/>
<path d="M59.1049 21.403C58.915 21.4013 58.7257 21.3814 58.5396 21.3437C57.8467 21.1942 57.2415 20.7767 56.8566 20.1826C56.4718 19.5886 56.3388 18.8665 56.4867 18.1748C56.7057 17.1502 56.8155 16.1054 56.814 15.0578C56.814 9.78873 54.1066 5.33595 50.9008 5.33595C50.5378 5.35506 50.1747 5.30022 49.8336 5.17478C49.4925 5.04933 49.1806 4.8559 48.9169 4.60628C48.6531 4.35666 48.4431 4.05607 48.2996 3.72284C48.156 3.38961 48.082 3.0307 48.082 2.668C48.082 2.3053 48.156 1.9464 48.2996 1.61316C48.4431 1.27993 48.6531 0.979343 48.9169 0.729723C49.1806 0.480102 49.4925 0.286674 49.8336 0.161227C50.1747 0.0357793 50.5378 -0.0190607 50.9008 4.8697e-05C57.2156 4.8697e-05 62.1619 6.61242 62.1619 15.0578C62.1645 16.4797 62.0149 17.8978 61.7156 19.288C61.5882 19.8851 61.2596 20.4206 60.7846 20.8054C60.3095 21.1903 59.7168 21.4012 59.1049 21.403Z" fill="#FF6217"/>
<path d="M71.3771 27.4589C69.4367 27.4589 67.54 28.033 65.9266 29.1086C64.3132 30.1841 63.0558 31.7129 62.3132 33.5016C61.5707 35.2902 61.3764 37.2584 61.7549 39.1572C62.1335 41.056 63.0678 42.8002 64.4399 44.1692C65.812 45.5382 67.5601 46.4704 69.4632 46.8481C71.3662 47.2258 73.3389 47.032 75.1315 46.2911C76.9242 45.5502 78.4564 44.2956 79.5344 42.6858C80.6125 41.0761 81.1878 39.1836 81.1878 37.2475C81.1878 34.6514 80.1542 32.1616 78.3144 30.3259C76.4745 28.4902 73.9791 27.4589 71.3771 27.4589ZM71.3771 43.4814C70.3376 43.48 69.315 43.2199 68.4017 42.7246C67.4884 42.2293 66.7134 41.5145 66.1469 40.6449C65.5804 39.7754 65.2403 38.7785 65.1574 37.7447C65.0745 36.7108 65.2514 35.6727 65.6722 34.7243C68.2561 37.7169 71.1874 40.3925 74.4044 42.6948C73.4796 43.2134 72.438 43.4892 71.3771 43.4963V43.4814Z" fill="#0C57CE"/>
<path d="M30.422 27.4589C28.4817 27.4589 26.5849 28.033 24.9715 29.1086C23.3581 30.1841 22.1007 31.7129 21.3581 33.5016C20.6156 35.2902 20.4213 37.2584 20.7998 39.1572C21.1784 41.056 22.1128 42.8002 23.4848 44.1692C24.8569 45.5382 26.605 46.4704 28.5081 46.8481C30.4112 47.2258 32.3838 47.032 34.1764 46.2911C35.9691 45.5502 37.5013 44.2956 38.5794 42.6858C39.6574 41.0761 40.2328 39.1836 40.2328 37.2475C40.2328 34.6514 39.1991 32.1616 37.3593 30.3259C35.5194 28.4902 33.024 27.4589 30.422 27.4589ZM30.422 43.4814C29.3511 43.4794 28.2986 43.2035 27.365 42.6799C30.5916 40.3842 33.5329 37.7135 36.127 34.7243C36.5477 35.6727 36.7247 36.7108 36.6418 37.7447C36.5589 38.7785 36.2188 39.7754 35.6523 40.6449C35.0858 41.5145 34.3108 42.2293 33.3975 42.7246C32.4842 43.2199 31.4615 43.48 30.422 43.4814Z" fill="#FF6217"/>
<path d="M40.0262 19.0801C41.9307 27.7504 45.6351 35.9263 50.9005 43.0806V59.2367C51.1755 59.2287 51.4425 59.3296 51.6432 59.5173C51.8438 59.705 51.9619 59.9643 51.9716 60.2386L54.0394 111.037L52.7006 113.063C52.6325 113.163 52.5932 113.28 52.587 113.401C52.5808 113.522 52.608 113.642 52.6655 113.748C52.7231 113.854 52.8088 113.943 52.9133 114.004C53.0179 114.065 53.1372 114.097 53.2584 114.095H60.7485L61.6336 87.163C61.9103 88.7317 62.5524 90.2137 63.508 91.4896C63.508 91.4896 69.198 98.436 81.2922 92.7067L83.0922 93.4489C83.2473 93.5093 83.4162 93.5254 83.5799 93.4951C83.7436 93.4648 83.8956 93.3894 84.0186 93.2775C84.1417 93.1655 84.2308 93.0215 84.2761 92.8616C84.3214 92.7017 84.321 92.5324 84.2748 92.3728L81.9542 84.2836C79.2244 85.2112 71.1319 87.8458 71.1319 77.2853C71.1319 70.992 73.8691 65.3444 75.8625 62.0642C82.9993 64.9872 90.6003 66.6206 98.3103 66.8881C98.6733 66.9072 99.0365 66.8523 99.3775 66.7269C99.7186 66.6014 100.031 66.408 100.294 66.1584C100.558 65.9088 100.768 65.6082 100.912 65.275C101.055 64.9417 101.129 64.5828 101.129 64.2201C101.129 63.8574 101.055 63.4985 100.912 63.1653C100.768 62.832 100.558 62.5315 100.294 62.2818C100.031 62.0322 99.7186 61.8388 99.3775 61.7133C99.0365 61.5879 98.6733 61.5331 98.3103 61.5522C90.3875 61.2169 82.605 59.3519 75.3939 56.0604C59.5956 48.8543 49.4501 36.0229 45.2254 17.915C45.0313 17.262 44.5946 16.7076 44.0046 16.3652C43.4146 16.0227 42.7157 15.918 42.0509 16.0724C41.3861 16.2269 40.8054 16.6289 40.4277 17.1962C40.05 17.7635 39.9037 18.4533 40.0188 19.1247L40.0262 19.0801Z" fill="#0C57CE"/>
</svg>

